<?xml version="1.0" standalone="no"?>
 <!DOCTYPE svg PUBLIC "-//W3C//DTD SVG 1.1//EN" 
 "http://www.w3.org/Graphics/SVG/1.1/DTD/svg11.dtd"> 
<svg xmlns="http://www.w3.org/2000/svg" version="1.1" 
    width="4.9403cm" height="3.7592cm" viewBox="0 0 19450 14800 ">
<title>SVG Picture created as RN-42-Breakout--brd.svg date 2013/06/17 13:57:59 </title>
  <desc>Picture generated by PCBNEW </desc>
<g style="fill:#000000; fill-opacity:1;stroke:#000000; stroke-opacity:1;
stroke-linecap:round; stroke-linejoin:round; "
 transform="translate(0 0) scale(1 1)">
</g>
<g style="fill:#000000; fill-opacity:0.0; 
stroke:#000000; stroke-width:39.3701; stroke-opacity:1; 
stroke-linecap:round; stroke-linejoin:round;">
<path d="M19227 3119
L233 3119
" />
<path d="M19223 14099
L19227 3119
" />
<path d="M231 14101
L19223 14099
" />
<path d="M233 3117
L231 14101
" />
</g>
<g style="fill:#000000; fill-opacity:0.0; 
stroke:#000000; stroke-width:787.402; stroke-opacity:1; 
stroke-linecap:round; stroke-linejoin:round;">
<path d="M17908 4133
L17514 4133
" />
<path d="M17908 5133
L17514 5133
" />
<path d="M17908 7133
L17514 7133
" />
<path d="M17908 9133
L17514 9133
" />
<path d="M17908 6133
L17514 6133
" />
<path d="M17908 8133
L17514 8133
" />
<path d="M17908 10133
L17514 10133
" />
<path d="M17908 11133
L17514 11133
" />
<path d="M17908 12133
L17514 12133
" />
<path d="M17908 13133
L17514 13133
" />
</g>
<g style="fill:#000000; fill-opacity:0.0; 
stroke:#000000; stroke-width:19.685; stroke-opacity:1; 
stroke-linecap:round; stroke-linejoin:round;">
</g>
<g style="fill:#000000; fill-opacity:1.0; 
stroke:#000000; stroke-width:19.685; stroke-opacity:1; 
stroke-linecap:round; stroke-linejoin:round;">
<polyline style="fill-rule:evenodd;"
points="6836,9004
6836,8709
7326,8709
7326,9004
6836,9004
" /> 
<polyline style="fill-rule:evenodd;"
points="6836,9475
6836,9180
7326,9180
7326,9475
6836,9475
" /> 
<polyline style="fill-rule:evenodd;"
points="6836,8530
6836,8235
7326,8235
7326,8530
6836,8530
" /> 
<polyline style="fill-rule:evenodd;"
points="6836,8059
6836,7764
7326,7764
7326,8059
6836,8059
" /> 
<polyline style="fill-rule:evenodd;"
points="6836,6170
6836,5875
7326,5875
7326,6170
6836,6170
" /> 
<polyline style="fill-rule:evenodd;"
points="6836,6642
6836,6347
7326,6347
7326,6642
6836,6642
" /> 
<polyline style="fill-rule:evenodd;"
points="6836,7587
6836,7292
7326,7292
7326,7587
6836,7587
" /> 
<polyline style="fill-rule:evenodd;"
points="6836,7115
6836,6820
7326,6820
7326,7115
6836,7115
" /> 
<polyline style="fill-rule:evenodd;"
points="6836,5225
6836,4930
7326,4930
7326,5225
6836,5225
" /> 
<polyline style="fill-rule:evenodd;"
points="6836,5697
6836,5402
7326,5402
7326,5697
6836,5697
" /> 
<polyline style="fill-rule:evenodd;"
points="6836,4752
6836,4457
7326,4457
7326,4752
6836,4752
" /> 
<polyline style="fill-rule:evenodd;"
points="6836,4280
6836,3985
7326,3985
7326,4280
6836,4280
" /> 
<polyline style="fill-rule:evenodd;"
points="12032,9477
12032,9182
12522,9182
12522,9477
12032,9477
" /> 
<polyline style="fill-rule:evenodd;"
points="12033,9004
12033,8709
12523,8709
12523,9004
12033,9004
" /> 
<polyline style="fill-rule:evenodd;"
points="12033,8532
12033,8237
12523,8237
12523,8532
12033,8532
" /> 
<polyline style="fill-rule:evenodd;"
points="12033,8060
12033,7765
12523,7765
12523,8060
12033,8060
" /> 
<polyline style="fill-rule:evenodd;"
points="12033,7587
12033,7292
12523,7292
12523,7587
12033,7587
" /> 
<polyline style="fill-rule:evenodd;"
points="12033,7115
12033,6820
12523,6820
12523,7115
12033,7115
" /> 
<polyline style="fill-rule:evenodd;"
points="12033,6642
12033,6347
12523,6347
12523,6642
12033,6642
" /> 
<polyline style="fill-rule:evenodd;"
points="12033,6170
12033,5875
12523,5875
12523,6170
12033,6170
" /> 
<polyline style="fill-rule:evenodd;"
points="12033,5697
12033,5402
12523,5402
12523,5697
12033,5697
" /> 
<polyline style="fill-rule:evenodd;"
points="12033,5225
12033,4930
12523,4930
12523,5225
12033,5225
" /> 
<polyline style="fill-rule:evenodd;"
points="12033,4752
12033,4457
12523,4457
12523,4752
12033,4752
" /> 
<polyline style="fill-rule:evenodd;"
points="12033,4280
12033,3985
12523,3985
12523,4280
12033,4280
" /> 
<polyline style="fill-rule:evenodd;"
points="7918,10677
7918,10186
8212,10186
8212,10677
7918,10677
" /> 
<polyline style="fill-rule:evenodd;"
points="8311,10677
8311,10186
8605,10186
8605,10677
8311,10677
" /> 
<polyline style="fill-rule:evenodd;"
points="8823,10677
8823,10186
9117,10186
9117,10677
8823,10677
" /> 
<polyline style="fill-rule:evenodd;"
points="9296,10677
9296,10186
9590,10186
9590,10677
9296,10677
" /> 
<polyline style="fill-rule:evenodd;"
points="9768,10677
9768,10186
10062,10186
10062,10677
9768,10677
" /> 
<polyline style="fill-rule:evenodd;"
points="10241,10677
10241,10186
10535,10186
10535,10677
10241,10677
" /> 
<polyline style="fill-rule:evenodd;"
points="10791,10677
10791,10186
11085,10186
11085,10677
10791,10677
" /> 
<polyline style="fill-rule:evenodd;"
points="11184,10677
11184,10186
11478,10186
11478,10677
11184,10677
" /> 
<polyline style="fill-rule:evenodd;"
points="1120,3749
2282,3749
2282,4516
1120,4516
1120,3749
" /> 
</g>
<g style="fill:#000000; fill-opacity:1.0; 
stroke:#000000; stroke-width:787.402; stroke-opacity:1; 
stroke-linecap:round; stroke-linejoin:round;">
<path d="M1898 5133
L1504 5133
" />
<path d="M1898 7133
L1504 7133
" />
<path d="M1898 9133
L1504 9133
" />
<path d="M1898 6133
L1504 6133
" />
<path d="M1898 8133
L1504 8133
" />
<path d="M1898 10133
L1504 10133
" />
<path d="M1898 11133
L1504 11133
" />
<path d="M1898 12133
L1504 12133
" />
<path d="M1898 13133
L1504 13133
" />
</g>
<g style="fill:#000000; fill-opacity:1.0; 
stroke:#000000; stroke-width:200; stroke-opacity:1; 
stroke-linecap:round; stroke-linejoin:round;">
<path d="M9443 10432
L9443 13131
" />
<path d="M9441 13133
L1701 13133
" />
<path d="M9443 13131
L9441 13133
" />
<path d="M8970 10432
L8970 12132
" />
<path d="M8969 12133
L1701 12133
" />
<path d="M8970 12132
L8969 12133
" />
<path d="M7081 5078
L3056 5078
" />
<path d="M1705 6137
L1701 6133
" />
<path d="M3061 6137
L1705 6137
" />
<path d="M3055 6131
L3061 6137
" />
<path d="M3055 5079
L3055 6131
" />
<path d="M3056 5078
L3055 5079
" />
<path d="M7081 5550
L3538 5550
" />
<path d="M3535 7133
L1701 7133
" />
<path d="M3537 7131
L3535 7133
" />
<path d="M3537 5549
L3537 7131
" />
<path d="M3538 5550
L3537 5549
" />
<path d="M7081 6023
L4015 6023
" />
<path d="M4011 8133
L1701 8133
" />
<path d="M4013 8131
L4011 8133
" />
<path d="M4013 6025
L4013 8131
" />
<path d="M4015 6023
L4013 6025
" />
<path d="M7081 6495
L4483 6495
" />
<path d="M4481 9133
L1701 9133
" />
<path d="M4481 6493
L4481 9133
" />
<path d="M4483 6495
L4481 6493
" />
<path d="M7081 4605
L2581 4605
" />
<path d="M2583 5133
L1701 5133
" />
<path d="M2585 5135
L2583 5133
" />
<path d="M2585 4609
L2585 5135
" />
<path d="M2581 4605
L2585 4609
" />
<path d="M7081 8857
L4961 8857
" />
<path d="M4959 10133
L1701 10133
" />
<path d="M4959 8859
L4959 10133
" />
<path d="M4961 8857
L4959 8859
" />
<path d="M7081 4133
L1701 4133
" />
<path d="M12278 6023
L15379 6023
" />
<path d="M17709 8131
L17711 8133
" />
<path d="M15389 8131
L17709 8131
" />
<path d="M15381 8123
L15389 8131
" />
<path d="M15381 6025
L15381 8123
" />
<path d="M15379 6023
L15381 6025
" />
<path d="M12278 4133
L17711 4133
" />
<path d="M12277 9330
L12277 13129
" />
<path d="M12281 13133
L17711 13133
" />
<path d="M12277 13129
L12281 13133
" />
<path d="M12278 8857
L13481 8857
" />
<path d="M13493 12133
L17711 12133
" />
<path d="M13491 12135
L13493 12133
" />
<path d="M13491 8867
L13491 12135
" />
<path d="M13481 8857
L13491 8867
" />
<path d="M12278 8385
L13959 8385
" />
<path d="M13963 11133
L17711 11133
" />
<path d="M13961 11135
L13963 11133
" />
<path d="M13961 8383
L13961 11135
" />
<path d="M13959 8385
L13961 8383
" />
<path d="M12278 7913
L14435 7913
" />
<path d="M14437 10133
L17711 10133
" />
<path d="M14437 7915
L14437 10133
" />
<path d="M14435 7913
L14437 7915
" />
<path d="M17711 9133
L14913 9133
" />
<path d="M14905 6495
L14909 6491
" />
<path d="M14909 6491
L14909 9129
" />
<path d="M14909 9129
L14913 9133
" />
<path d="M14905 6495
L12278 6495
" />
<path d="M12278 5550
L15852 5550
" />
<path d="M15853 7133
L17711 7133
" />
<path d="M15851 7131
L15853 7133
" />
<path d="M15851 5551
L15851 7131
" />
<path d="M15852 5550
L15851 5551
" />
<path d="M12278 5078
L16342 5078
" />
<path d="M16337 6133
L17711 6133
" />
<path d="M16333 6137
L16337 6133
" />
<path d="M16333 5087
L16333 6137
" />
<path d="M16342 5078
L16333 5087
" />
<path d="M12278 4605
L16821 4605
" />
<path d="M16819 5133
L17711 5133
" />
<path d="M16817 5135
L16819 5133
" />
<path d="M16817 4609
L16817 5135
" />
<path d="M16821 4605
L16817 4609
" />
</g>
<g style="fill:#000000; fill-opacity:1.0; 
stroke:#000000; stroke-width:19.685; stroke-opacity:1; 
stroke-linecap:round; stroke-linejoin:round;">
<polyline style="fill-rule:evenodd;"
points="18953,13831
18568,13831
18568,13133
18519,12886
18380,12677
18312,12633
18380,12588
18519,12379
18568,12133
18519,11886
18380,11677
18312,11633
18380,11588
18519,11379
18568,11133
18519,10886
18380,10677
18312,10633
18380,10588
18519,10379
18568,10133
18519,9886
18380,9677
18312,9633
18380,9588
18519,9379
18568,9133
18519,8886
18380,8677
18312,8633
18380,8588
18519,8379
18568,8133
18519,7886
18380,7677
18312,7633
18380,7588
18519,7379
18568,7133
18519,6886
18380,6677
18312,6633
18380,6588
18519,6379
18568,6133
18519,5886
18380,5677
18312,5633
18380,5588
18519,5379
18568,5133
18519,4886
18380,4677
18312,4633
18380,4588
18519,4379
18568,4133
18519,3886
18380,3677
18171,3538
17924,3489
17498,3489
17251,3538
17043,3677
16972,3783
12694,3783
12675,3764
12583,3726
12484,3725
11974,3725
11882,3763
11811,3834
11773,3926
11773,4025
11773,4339
11785,4368
11773,4398
11773,4497
11773,4811
11785,4841
11773,4871
11773,4970
11773,5284
11785,5313
11773,5343
11773,5442
11773,5756
11785,5786
11773,5816
11773,5915
11773,6229
11785,6258
11773,6288
11773,6387
11773,6701
11785,6731
11773,6761
11773,6860
11773,7174
11785,7203
11773,7233
11773,7332
11773,7646
11785,7676
11773,7706
11773,7805
11773,8119
11785,8148
11773,8178
11773,8277
11773,8591
11785,8620
11773,8650
11773,8749
11773,9063
11785,9092
11772,9123
11772,9222
11772,9536
11810,9628
11880,9698
11927,9718
11927,13129
11954,13262
12030,13376
12034,13380
12147,13456
12281,13483
16972,13483
17043,13588
17251,13727
17498,13776
17924,13776
18171,13727
18380,13588
18519,13379
18568,13133
18568,13831
11738,13831
11738,10637
11738,10127
11700,10035
11630,9965
11538,9927
11439,9926
11145,9926
11125,9926
11124,9926
11051,9927
10988,9989
10988,10009
10962,10035
10924,10127
10924,10226
10924,10736
10962,10828
10988,10854
10988,10874
11051,10937
11145,10937
11145,10936
11224,10937
11538,10937
11629,10899
11700,10828
11738,10736
11738,10637
11738,13831
10888,13831
10888,10874
10888,10482
10880,10482
10880,10382
10888,10382
10888,9989
10826,9927
10732,9926
10663,9955
10595,9927
10496,9926
10182,9926
10152,9939
10122,9927
10023,9926
9709,9926
9679,9939
9650,9927
9551,9926
9237,9926
9207,9939
9177,9927
9078,9926
8764,9926
8714,9947
8665,9926
8571,9927
8508,9989
8508,10382
8516,10382
8516,10482
8508,10482
8508,10874
8571,10937
8620,10937
8620,11783
8472,11783
8472,10637
8472,10127
8434,10035
8408,10009
8408,9989
8346,9927
8252,9926
8251,9927
8173,9926
7859,9926
7767,9964
7696,10035
7658,10127
7658,10226
7658,10736
7696,10828
7766,10898
7858,10936
7958,10937
8252,10937
8272,10937
8272,10937
8346,10937
8408,10874
8408,10854
8434,10828
8472,10736
8472,10637
8472,11783
7586,11783
7586,9435
7586,9440
7524,9378
7131,9378
7131,9672
7194,9735
7386,9735
7477,9697
7548,9626
7586,9534
7586,9435
7586,11783
7031,11783
7031,9672
7031,9378
6639,9378
6576,9440
6576,9435
6576,9534
6614,9626
6685,9697
6777,9735
6969,9735
7031,9672
7031,11783
2440,11783
2370,11677
2302,11633
2370,11588
2509,11379
2558,11133
2509,10886
2370,10677
2302,10633
2370,10588
2440,10483
4959,10483
5093,10456
5207,10380
5282,10266
5309,10133
5309,9207
6576,9207
6576,9220
6576,9215
6639,9278
7031,9278
7031,9270
7131,9270
7131,9278
7524,9278
7586,9215
7586,9220
7586,9121
7574,9092
7586,9063
7586,8964
7586,8650
7573,8620
7586,8589
7586,8490
7586,8176
7574,8147
7586,8118
7586,8019
7586,7705
7574,7676
7586,7646
7586,7547
7586,7233
7574,7204
7586,7174
7586,7075
7586,6761
7574,6731
7586,6701
7586,6602
7586,6288
7574,6259
7586,6229
7586,6130
7586,5816
7574,5786
7586,5756
7586,5657
7586,5343
7574,5314
7586,5284
7586,5185
7586,4871
7574,4841
7586,4811
7586,4712
7586,4398
7574,4369
7586,4339
7586,4240
7586,4025
7586,3926
7548,3834
7477,3763
7386,3725
7194,3726
7131,3788
7131,4083
7524,4083
7586,4020
7586,4025
7586,4240
7586,4245
7524,4183
7131,4183
7131,4190
7031,4190
7031,4183
7031,4083
7031,3788
6969,3726
6777,3725
6685,3763
6614,3834
6576,3926
6576,4025
6576,4020
6639,4083
7031,4083
7031,4183
6639,4183
6576,4245
6576,4240
6576,4255
2581,4255
2542,4262
2542,3689
2504,3597
2433,3527
2342,3489
2242,3489
1814,3489
1751,3551
1751,4083
2479,4083
2542,4020
2542,3689
2542,4262
2542,4262
2542,4245
2479,4183
1751,4183
1751,4190
1651,4190
1651,4183
1651,4083
1651,3551
1589,3489
1160,3489
1061,3489
969,3527
898,3597
860,3689
860,4020
923,4083
1651,4083
1651,4183
923,4183
860,4245
860,4576
898,4668
969,4738
987,4746
893,4886
844,5133
893,5379
1033,5588
1100,5633
1033,5677
893,5886
844,6133
893,6379
1033,6588
1100,6633
1033,6677
893,6886
844,7133
893,7379
1033,7588
1100,7633
1033,7677
893,7886
844,8133
893,8379
1033,8588
1100,8633
1033,8677
893,8886
844,9133
893,9379
1033,9588
1100,9633
1033,9677
893,9886
844,10133
893,10379
1033,10588
1100,10633
1033,10677
893,10886
844,11133
893,11379
1033,11588
1100,11633
1033,11677
893,11886
844,12133
893,12379
1033,12588
1100,12633
1033,12677
893,12886
844,13133
893,13379
1033,13588
1241,13727
1488,13776
1914,13776
2161,13727
2370,13588
2440,13483
9441,13483
9575,13456
9575,13456
9689,13380
9691,13378
9766,13264
9766,13264
9793,13131
9793,10937
9808,10937
10122,10937
10151,10924
10181,10936
10281,10937
10595,10937
10663,10908
10732,10937
10826,10937
10888,10874
10888,13831
501,13831
501,3388
18953,3388
18953,13831
" /> 
</g>
<g style="fill:#000000; fill-opacity:0.0; 
stroke:#000000; stroke-width:100; stroke-opacity:1; 
stroke-linecap:round; stroke-linejoin:round;">
<polyline fill="none;"
points="18953,13831
18568,13831
18568,13133
18519,12886
18380,12677
18312,12633
18380,12588
18519,12379
18568,12133
18519,11886
18380,11677
18312,11633
18380,11588
18519,11379
18568,11133
18519,10886
18380,10677
18312,10633
18380,10588
18519,10379
18568,10133
18519,9886
18380,9677
18312,9633
18380,9588
18519,9379
18568,9133
18519,8886
18380,8677
18312,8633
18380,8588
18519,8379
18568,8133
18519,7886
18380,7677
18312,7633
18380,7588
18519,7379
18568,7133
18519,6886
18380,6677
18312,6633
18380,6588
18519,6379
18568,6133
18519,5886
18380,5677
18312,5633
18380,5588
18519,5379
18568,5133
18519,4886
18380,4677
18312,4633
18380,4588
18519,4379
18568,4133
18519,3886
18380,3677
18171,3538
17924,3489
17498,3489
17251,3538
17043,3677
16972,3783
12694,3783
12675,3764
12583,3726
12484,3725
11974,3725
11882,3763
11811,3834
11773,3926
11773,4025
11773,4339
11785,4368
11773,4398
11773,4497
11773,4811
11785,4841
11773,4871
11773,4970
11773,5284
11785,5313
11773,5343
11773,5442
11773,5756
11785,5786
11773,5816
11773,5915
11773,6229
11785,6258
11773,6288
11773,6387
11773,6701
11785,6731
11773,6761
11773,6860
11773,7174
11785,7203
11773,7233
11773,7332
11773,7646
11785,7676
11773,7706
11773,7805
11773,8119
11785,8148
11773,8178
11773,8277
11773,8591
11785,8620
11773,8650
11773,8749
11773,9063
11785,9092
11772,9123
11772,9222
11772,9536
11810,9628
11880,9698
11927,9718
11927,13129
11954,13262
12030,13376
12034,13380
12147,13456
12281,13483
16972,13483
17043,13588
17251,13727
17498,13776
17924,13776
18171,13727
18380,13588
18519,13379
18568,13133
18568,13831
11738,13831
11738,10637
11738,10127
11700,10035
11630,9965
11538,9927
11439,9926
11145,9926
11125,9926
11124,9926
11051,9927
10988,9989
10988,10009
10962,10035
10924,10127
10924,10226
10924,10736
10962,10828
10988,10854
10988,10874
11051,10937
11145,10937
11145,10936
11224,10937
11538,10937
11629,10899
11700,10828
11738,10736
11738,10637
11738,13831
10888,13831
10888,10874
10888,10482
10880,10482
10880,10382
10888,10382
10888,9989
10826,9927
10732,9926
10663,9955
10595,9927
10496,9926
10182,9926
10152,9939
10122,9927
10023,9926
9709,9926
9679,9939
9650,9927
9551,9926
9237,9926
9207,9939
9177,9927
9078,9926
8764,9926
8714,9947
8665,9926
8571,9927
8508,9989
8508,10382
8516,10382
8516,10482
8508,10482
8508,10874
8571,10937
8620,10937
8620,11783
8472,11783
8472,10637
8472,10127
8434,10035
8408,10009
8408,9989
8346,9927
8252,9926
8251,9927
8173,9926
7859,9926
7767,9964
7696,10035
7658,10127
7658,10226
7658,10736
7696,10828
7766,10898
7858,10936
7958,10937
8252,10937
8272,10937
8272,10937
8346,10937
8408,10874
8408,10854
8434,10828
8472,10736
8472,10637
8472,11783
7586,11783
7586,9435
7586,9440
7524,9378
7131,9378
7131,9672
7194,9735
7386,9735
7477,9697
7548,9626
7586,9534
7586,9435
7586,11783
7031,11783
7031,9672
7031,9378
6639,9378
6576,9440
6576,9435
6576,9534
6614,9626
6685,9697
6777,9735
6969,9735
7031,9672
7031,11783
2440,11783
2370,11677
2302,11633
2370,11588
2509,11379
2558,11133
2509,10886
2370,10677
2302,10633
2370,10588
2440,10483
4959,10483
5093,10456
5207,10380
5282,10266
5309,10133
5309,9207
6576,9207
6576,9220
6576,9215
6639,9278
7031,9278
7031,9270
7131,9270
7131,9278
7524,9278
7586,9215
7586,9220
7586,9121
7574,9092
7586,9063
7586,8964
7586,8650
7573,8620
7586,8589
7586,8490
7586,8176
7574,8147
7586,8118
7586,8019
7586,7705
7574,7676
7586,7646
7586,7547
7586,7233
7574,7204
7586,7174
7586,7075
7586,6761
7574,6731
7586,6701
7586,6602
7586,6288
7574,6259
7586,6229
7586,6130
7586,5816
7574,5786
7586,5756
7586,5657
7586,5343
7574,5314
7586,5284
7586,5185
7586,4871
7574,4841
7586,4811
7586,4712
7586,4398
7574,4369
7586,4339
7586,4240
7586,4025
7586,3926
7548,3834
7477,3763
7386,3725
7194,3726
7131,3788
7131,4083
7524,4083
7586,4020
7586,4025
7586,4240
7586,4245
7524,4183
7131,4183
7131,4190
7031,4190
7031,4183
7031,4083
7031,3788
6969,3726
6777,3725
6685,3763
6614,3834
6576,3926
6576,4025
6576,4020
6639,4083
7031,4083
7031,4183
6639,4183
6576,4245
6576,4240
6576,4255
2581,4255
2542,4262
2542,3689
2504,3597
2433,3527
2342,3489
2242,3489
1814,3489
1751,3551
1751,4083
2479,4083
2542,4020
2542,3689
2542,4262
2542,4262
2542,4245
2479,4183
1751,4183
1751,4190
1651,4190
1651,4183
1651,4083
1651,3551
1589,3489
1160,3489
1061,3489
969,3527
898,3597
860,3689
860,4020
923,4083
1651,4083
1651,4183
923,4183
860,4245
860,4576
898,4668
969,4738
987,4746
893,4886
844,5133
893,5379
1033,5588
1100,5633
1033,5677
893,5886
844,6133
893,6379
1033,6588
1100,6633
1033,6677
893,6886
844,7133
893,7379
1033,7588
1100,7633
1033,7677
893,7886
844,8133
893,8379
1033,8588
1100,8633
1033,8677
893,8886
844,9133
893,9379
1033,9588
1100,9633
1033,9677
893,9886
844,10133
893,10379
1033,10588
1100,10633
1033,10677
893,10886
844,11133
893,11379
1033,11588
1100,11633
1033,11677
893,11886
844,12133
893,12379
1033,12588
1100,12633
1033,12677
893,12886
844,13133
893,13379
1033,13588
1241,13727
1488,13776
1914,13776
2161,13727
2370,13588
2440,13483
9441,13483
9575,13456
9575,13456
9689,13380
9691,13378
9766,13264
9766,13264
9793,13131
9793,10937
9808,10937
10122,10937
10151,10924
10181,10936
10281,10937
10595,10937
10663,10908
10732,10937
10826,10937
10888,10874
10888,13831
501,13831
501,3388
18953,3388
18953,13831
" /> 
</g>
<g style="fill:#FFFFFF; fill-opacity:0.0; 
stroke:#FFFFFF; stroke-width:19.685; stroke-opacity:1; 
stroke-linecap:round; stroke-linejoin:round;">
</g>
<g style="fill:#FFFFFF; fill-opacity:1.0; 
stroke:#FFFFFF; stroke-width:19.685; stroke-opacity:1; 
stroke-linecap:round; stroke-linejoin:round;">
<circle cx="17711.5" cy="4133" r="137.795" /> 
<circle cx="17711.5" cy="5133" r="137.795" /> 
<circle cx="17711.5" cy="7133" r="137.795" /> 
<circle cx="17711.5" cy="9133" r="137.795" /> 
<circle cx="17711.5" cy="6133" r="137.795" /> 
<circle cx="17711.5" cy="8133" r="137.795" /> 
<circle cx="17711.5" cy="10133" r="137.795" /> 
<circle cx="17711.5" cy="11133" r="137.795" /> 
<circle cx="17711.5" cy="12133" r="137.795" /> 
<circle cx="17711.5" cy="13133" r="137.795" /> 
<circle cx="1701.53" cy="4133" r="137.795" /> 
<circle cx="1701.53" cy="5133" r="137.795" /> 
<circle cx="1701.53" cy="7133" r="137.795" /> 
<circle cx="1701.53" cy="9133" r="137.795" /> 
<circle cx="1701.53" cy="6133" r="137.795" /> 
<circle cx="1701.53" cy="8133" r="137.795" /> 
<circle cx="1701.53" cy="10133" r="137.795" /> 
<circle cx="1701.53" cy="11133" r="137.795" /> 
<circle cx="1701.53" cy="12133" r="137.795" /> 
<circle cx="1701.53" cy="13133" r="137.795" /> 
</g> 
</svg>
